# xmcd CD database file
#
# Track frame offsets:
#	150
#	15570
#	30822
#	45273
#	60533
#	77222
#	92798
#	111929
#	129863
#	141272
#	157518
#	172542
#	190561
#	210621
#	223970
#	240154
#	254910
#	266621
#	281817
#	302367
#
# Disc length: 4242 seconds
#
# Revision: 0
# Processed by: cddbd v1.5.2PL0 Copyright (c) Steve Scherf et al.
# Submitted via: CDex 1.51
#
DISCID=fc109014
DTITLE=Various Artist - Country Australia
DYEAR=2008
DGENRE=Country
TTITLE0=Lee Kernighan - Living in Australia
TTITLE1=Sara Storer - Cold River
TTITLE2=John Williamson - Desert Child
TTITLE3=The Slim Dusty Family Reunion - Family Reunion
TTITLE4=The Sunny Cowgirls - Cuttin' Up B and S Style
TTITLE5=Markus Meir and Band - In My Boots
TTITLE6=Laura Downing - We're Already There
TTITLE7=Billy Bridge - Everything I Needed To Say
TTITLE8=Anita Rae - Auctioneer
TTITLE9=Craig Morrison Little Cowboys - Losin' It
TTITLE10=The Rustlers - My Baby's Leaving Me
TTITLE11=The Noll Bros - Man on a Mission
TTITLE12=Marco Gliori - The Footy Speech
TTITLE13=Rachel Richards - Beautiful Dreams
TTITLE14=The Bobkatz - The Long Haul
TTITLE15=Kristy Cox - Fallen
TTITLE16=On The Road Again - On The Road Again 
TTITLE17=Bryen Willems - Honky Tonk Song
TTITLE18=Darren Colston - In My Mind (I'm Free)
TTITLE19=The Cartwheels - Cheap Motel
EXTD=YEAR: 2008
EXTT0=
EXTT1=
EXTT2=
EXTT3=
EXTT4=
EXTT5=
EXTT6=
EXTT7=
EXTT8=
EXTT9=
EXTT10=
EXTT11=
EXTT12=
EXTT13=
EXTT14=
EXTT15=
EXTT16=
EXTT17=
EXTT18=
EXTT19=
PLAYORDER=
